<svg width="35" height="35" viewBox="0 0 35 35" fill="none" xmlns="http://www.w3.org/2000/svg">
<rect x="1" y="1" width="33" height="33" rx="1" stroke="white" stroke-width="2"/>
<rect x="3" y="3" width="8" height="29" rx="1" fill="#D9D9D9"/>
<path d="M31 19C31.5523 19 32 18.5523 32 18C32 17.4477 31.5523 17 31 17V19ZM12.2929 17.2929C11.9024 17.6834 11.9024 18.3166 12.2929 18.7071L18.6569 25.0711C19.0474 25.4616 19.6805 25.4616 20.0711 25.0711C20.4616 24.6805 20.4616 24.0474 20.0711 23.6569L14.4142 18L20.0711 12.3431C20.4616 11.9526 20.4616 11.3195 20.0711 10.9289C19.6805 10.5384 19.0474 10.5384 18.6569 10.9289L12.2929 17.2929ZM31 18V17L13 17V18V19L31 19V18Z" fill="white"/>
</svg>
