<svg width="35" height="35" viewBox="0 0 35 35" fill="none" xmlns="http://www.w3.org/2000/svg">
<rect x="1" y="1" width="33" height="33" rx="1" stroke="white" stroke-width="2"/>
<rect width="8" height="29" rx="1" transform="matrix(-1 0 0 1 32 3)" fill="#D9D9D9"/>
<path d="M4 19C3.44772 19 3 18.5523 3 18C3 17.4477 3.44772 17 4 17V19ZM22.7071 17.2929C23.0976 17.6834 23.0976 18.3166 22.7071 18.7071L16.3431 25.0711C15.9526 25.4616 15.3195 25.4616 14.9289 25.0711C14.5384 24.6805 14.5384 24.0474 14.9289 23.6569L20.5858 18L14.9289 12.3431C14.5384 11.9526 14.5384 11.3195 14.9289 10.9289C15.3195 10.5384 15.9526 10.5384 16.3431 10.9289L22.7071 17.2929ZM4 18V17L22 17V18V19L4 19V18Z" fill="white"/>
</svg>
