<svg width="34" height="32" viewBox="0 0 34 32" fill="none" xmlns="http://www.w3.org/2000/svg">
<path d="M17 21.78C25.8366 21.78 33 19.1922 33 16C33 12.8078 25.8366 10.22 17 10.22C8.16344 10.22 1 12.8078 1 16C1 19.1922 8.16344 21.78 17 21.78Z" stroke="#61DAFB"/>
<path d="M11.7094 18.89C16.1276 26.1305 22.0781 30.7061 25 29.11C27.9219 27.5139 26.7089 20.3504 22.2906 13.11C17.8723 5.86954 11.9219 1.2939 8.99998 2.89C6.07805 4.48611 7.29108 11.6496 11.7094 18.89Z" stroke="#61DAFB"/>
<path d="M11.7094 13.11C7.29109 20.3504 6.07806 27.5139 8.99999 29.11C11.9219 30.7061 17.8723 26.1305 22.2906 18.89C26.7089 11.6496 27.9219 4.48612 25 2.89001C22.0781 1.2939 16.1276 5.86955 11.7094 13.11Z" stroke="#61DAFB"/>
<path d="M17.1472 19.4114C18.8854 19.4114 20.2945 17.9762 20.2945 16.2057C20.2945 14.4352 18.8854 13 17.1472 13C15.4091 13 14 14.4352 14 16.2057C14 17.9762 15.4091 19.4114 17.1472 19.4114Z" fill="#61DAFB"/>
</svg>
