<svg width="44" height="32" viewBox="0 0 44 32" fill="none" xmlns="http://www.w3.org/2000/svg">
<mask id="mask0_2_485" style="mask-type:luminance" maskUnits="userSpaceOnUse" x="0" y="0" width="44" height="32">
<path d="M0 0H44V32H0V0Z" fill="white"/>
</mask>
<g mask="url(#mask0_2_485)">
<path fill-rule="evenodd" clip-rule="evenodd" d="M22 0C16.1333 0 12.4667 3.55556 11 10.6667C13.2 7.11111 15.7667 5.77778 18.7 6.66667C20.3736 7.17333 21.5698 8.64593 22.8939 10.2746C25.0507 12.9284 27.5473 16 33 16C38.8667 16 42.5333 12.4444 44 5.33333C41.8 8.88889 39.2333 10.2222 36.3 9.33333C34.6264 8.82667 33.4302 7.35407 32.1061 5.72543C29.9493 3.0716 27.4527 0 22 0ZM11 16C5.13333 16 1.46667 19.5556 0 26.6667C2.2 23.1111 4.76667 21.7778 7.7 22.6667C9.37363 23.1743 10.5698 24.6459 11.8939 26.2746C14.0507 28.9284 16.5473 32 22 32C27.8667 32 31.5333 28.4444 33 21.3333C30.8 24.8889 28.2333 26.2222 25.3 25.3333C23.6264 24.8267 22.4302 23.3541 21.1061 21.7254C18.9493 19.0716 16.4527 16 11 16Z" fill="#38BDF8"/>
</g>
</svg>
